<svg width="197" height="208" viewBox="0 0 197 208" fill="none" xmlns="http://www.w3.org/2000/svg">
<path d="M0 15C0 6.71573 6.71573 0 15 0H181.38C189.664 0 196.38 6.71573 196.38 15V19.9333H0V15Z" fill="#138B2F"/>
<path d="M0 20.1009H196.38V193C196.38 201.284 189.664 208 181.38 208H15C6.71573 208 0 201.284 0 193V20.1009Z" fill="white"/>
<circle cx="19.5103" cy="10.7586" r="3.5" fill="#BF1418"/>
<circle cx="31.5103" cy="10.7586" r="3.5" fill="#FEDA3B"/>
<circle cx="43.5103" cy="10.7586" r="3.5" fill="#364DE8"/>
<rect x="30" y="84" width="135.987" height="21.5172" fill="#CFE3D4" fill-opacity="0.42"/>
<rect x="29.8873" y="124.8" width="135.987" height="21.5172" fill="#CFE3D4" fill-opacity="0.42"/>
<path d="M81.6087 75.9192L83.601 56L95.5547 73.5047L105.295 56L108.837 74.3095L121.676 61.4325L117.47 78.1324L119.683 80.3456L133.629 75.1144L126.767 86.3818L130.53 90.607L151.56 88.7962L133.408 99.8624L134.515 103.484L156.43 109.721L138.499 115.154L147.575 130.445L129.645 129.439L126.767 132.86L133.408 146.34L121.233 139.902L117.248 141.512L121.233 159.419L109.058 146.34L107.287 147.145L105.073 165.052L96.8829 147.145H94.4479L82.7156 164.046V146.34L80.0592 144.731L67.8842 153.383L71.6474 139.902L69.4337 137.89L51.0605 144.731L62.5714 130.445L60.1364 127.629L46.6332 126.421L57.0373 116.16L38 109.923L57.0373 105.094L59.251 102.277L46.6332 93.2227L61.686 92.4179L62.5714 89.8022L51.7246 75.9192L70.7619 81.5529L68.3269 67.2674L81.6087 75.9192Z" fill="#6FB767"/>
<ellipse cx="82.4942" cy="101.673" rx="12.3964" ry="11.2674" fill="#A4D19F"/>
<ellipse cx="86.036" cy="128.031" rx="6.1982" ry="5.83491" fill="#A4D19F"/>
<ellipse cx="106.844" cy="96.2408" rx="6.1982" ry="5.83491" fill="#A4D19F"/>
<ellipse cx="113.042" cy="119.58" rx="9.74002" ry="9.05417" fill="#A4D19F"/>
<rect width="14.8543" height="2.02456" transform="matrix(0.930597 0.366044 -0.42988 0.902886 78.2962 88.0015)" fill="#060606"/>
<rect width="13.6937" height="2.22833" transform="matrix(0.805551 -0.592527 0.664971 0.74687 98.0806 93.3231)" fill="#060606"/>
<ellipse cx="81.6087" cy="98.0515" rx="1.77091" ry="1.60963" fill="#060606"/>
<ellipse cx="106.844" cy="96.4421" rx="1.77091" ry="1.60963" fill="#060606"/>
<path d="M86.7001 121.793C86.7001 119.379 104.188 119.379 104.188 121.793L103.745 122.598C103.745 122.598 98.6466 121.571 95.3333 121.592C92.1914 121.613 87.3642 122.598 87.3642 122.598L86.7001 121.793Z" fill="#DD7D3E"/>
</svg>
